<?xml version="1.0" encoding="iso-8859-1"?>
<!-- Generator: Adobe Illustrator 19.0.0, SVG Export Plug-In . SVG Version: 6.00 Build 0)  -->
<svg version="1.1" id="Layer_1" xmlns="http://www.w3.org/2000/svg" xmlns:xlink="http://www.w3.org/1999/xlink" x="0px" y="0px"
	 viewBox="0 0 512.005 512.005" style="enable-background:new 0 0 512.005 512.005;" xml:space="preserve">
<path style="fill:#CCCCCC;" d="M227.949,130.489L0,175.943v238.713c0,15.879,12.873,28.751,28.751,28.751h398.394
	c15.879,0,28.751-12.873,28.751-28.751V175.943L227.949,130.489z"/>
<path style="fill:#666666;" d="M455.898,346.539h-83.466v-73.728h83.466v-15.428h-83.466v-81.441c0-4.26-3.454-7.714-7.714-7.714
	s-7.714,3.454-7.714,7.714v81.441h-75.751v-81.441c0-4.26-3.454-7.714-7.714-7.714s-7.714,3.454-7.714,7.714v81.441h-75.752v-81.441
	c0-4.26-3.454-7.714-7.714-7.714c-4.26,0-7.714,3.454-7.714,7.714v81.441H98.894v-81.441c0-4.26-3.454-7.714-7.714-7.714
	s-7.714,3.454-7.714,7.714v81.441H0l0,0v15.428l0,0h83.465v73.728H0l0,0v15.428l0,0h83.465v81.441h15.428v-81.441h75.751v81.441
	h15.428v-81.441h75.752v81.441h15.428v-81.441h75.751v81.441h15.428v-81.441h83.466v-15.428H455.898z M174.645,346.539H98.894
	v-73.728h75.751L174.645,346.539L174.645,346.539z M265.825,346.539h-75.752v-73.728h75.752V346.539z M357.004,346.539h-75.751
	v-73.728h75.751V346.539z"/>
<path style="fill:#EE534F;" d="M427.145,85.036H28.751C12.873,85.036,0,97.908,0,113.787v62.156h455.898v-62.156
	C455.898,97.908,443.025,85.036,427.145,85.036z"/>
<path style="opacity:0.1;enable-background:new    ;" d="M389.783,201.376c-84.404,0-153.073,68.668-153.073,153.072
	c0,33.151,10.597,63.872,28.576,88.96h161.86c15.879,0,28.752-12.873,28.752-28.752V216.404
	C435.873,206.775,413.448,201.376,389.783,201.376z"/>
<circle style="fill:#4FC2F8;" cx="389.787" cy="354.448" r="122.218"/>
<circle style="fill:#FFFFFF;" cx="389.787" cy="354.448" r="88.031"/>
<path style="opacity:0.1;enable-background:new    ;" d="M322.324,354.448c0-45.135,33.976-82.314,77.743-87.411
	c-3.377-0.393-6.804-0.618-10.285-0.618c-48.617,0-88.029,39.412-88.029,88.029s39.412,88.029,88.029,88.029
	c3.482,0,6.909-0.224,10.285-0.618C356.3,436.763,322.324,399.584,322.324,354.448z"/>
<g>
	<path style="fill:#666666;" d="M450.284,373.671h-60.5c-4.26,0-7.714-3.454-7.714-7.714v-60.5c0-4.26,3.454-7.714,7.714-7.714
		s7.714,3.454,7.714,7.714v52.786h52.786c4.26,0,7.714,3.454,7.714,7.714C457.998,370.218,454.544,373.671,450.284,373.671z"/>
	<path style="fill:#666666;" d="M76.021,35.338c-12.703,0-23.001,10.297-23.001,23.001v53.393c0,12.703,10.297,23.001,23.001,23.001
		s23.001-10.298,23.001-23.001V58.339C99.022,45.636,88.724,35.338,76.021,35.338z"/>
	<path style="fill:#666666;" d="M177.306,35.338c-12.703,0-23.001,10.297-23.001,23.001v53.393
		c0,12.703,10.298,23.001,23.001,23.001s23.001-10.298,23.001-23.001V58.339C200.307,45.636,190.009,35.338,177.306,35.338z"/>
	<path style="fill:#666666;" d="M278.591,35.338c-12.703,0-23.001,10.297-23.001,23.001v53.393
		c0,12.703,10.297,23.001,23.001,23.001c12.703,0,23.001-10.298,23.001-23.001V58.339C301.593,45.636,291.294,35.338,278.591,35.338
		z"/>
	<path style="fill:#666666;" d="M379.876,35.338c-12.703,0-23.001,10.297-23.001,23.001v53.393
		c0,12.703,10.298,23.001,23.001,23.001c12.703,0,23.001-10.298,23.001-23.001V58.339C402.878,45.636,392.579,35.338,379.876,35.338
		z"/>
</g>
<g>
</g>
<g>
</g>
<g>
</g>
<g>
</g>
<g>
</g>
<g>
</g>
<g>
</g>
<g>
</g>
<g>
</g>
<g>
</g>
<g>
</g>
<g>
</g>
<g>
</g>
<g>
</g>
<g>
</g>
</svg>
